<mxfile host="65bd71144e">
    <diagram id="BFwVFHoDaZww6yme9LQn" name="Page-1">
        <mxGraphModel dx="1099" dy="632" grid="1" gridSize="10" guides="1" tooltips="1" connect="1" arrows="1" fold="1" page="1" pageScale="1" pageWidth="850" pageHeight="1100" math="0" shadow="0">
            <root>
                <mxCell id="0"/>
                <mxCell id="1" parent="0"/>
                <mxCell id="3" value="user" style="swimlane;fontStyle=0;childLayout=stackLayout;horizontal=1;startSize=30;horizontalStack=0;resizeParent=1;resizeParentMax=0;resizeLast=0;collapsible=1;marginBottom=0;" vertex="1" parent="1">
                    <mxGeometry x="110" y="130" width="500" height="720" as="geometry">
                        <mxRectangle x="40" y="140" width="60" height="30" as="alternateBounds"/>
                    </mxGeometry>
                </mxCell>
                <mxCell id="4" value="id (PK)" style="text;strokeColor=none;fillColor=none;align=left;verticalAlign=middle;spacingLeft=4;spacingRight=4;overflow=hidden;points=[[0,0.5],[1,0.5]];portConstraint=eastwest;rotatable=0;" vertex="1" parent="3">
                    <mxGeometry y="30" width="500" height="30" as="geometry"/>
                </mxCell>
                <mxCell id="5" value="name" style="text;strokeColor=none;fillColor=none;align=left;verticalAlign=middle;spacingLeft=4;spacingRight=4;overflow=hidden;points=[[0,0.5],[1,0.5]];portConstraint=eastwest;rotatable=0;" vertex="1" parent="3">
                    <mxGeometry y="60" width="500" height="30" as="geometry"/>
                </mxCell>
                <mxCell id="6" value="doB" style="text;strokeColor=none;fillColor=none;align=left;verticalAlign=middle;spacingLeft=4;spacingRight=4;overflow=hidden;points=[[0,0.5],[1,0.5]];portConstraint=eastwest;rotatable=0;" vertex="1" parent="3">
                    <mxGeometry y="90" width="500" height="30" as="geometry"/>
                </mxCell>
                <mxCell id="11" value="salaryScale" style="text;strokeColor=none;fillColor=none;align=left;verticalAlign=middle;spacingLeft=4;spacingRight=4;overflow=hidden;points=[[0,0.5],[1,0.5]];portConstraint=eastwest;rotatable=0;" vertex="1" parent="3">
                    <mxGeometry y="120" width="500" height="30" as="geometry"/>
                </mxCell>
                <mxCell id="10" value="startDate" style="text;strokeColor=none;fillColor=none;align=left;verticalAlign=middle;spacingLeft=4;spacingRight=4;overflow=hidden;points=[[0,0.5],[1,0.5]];portConstraint=eastwest;rotatable=0;" vertex="1" parent="3">
                    <mxGeometry y="150" width="500" height="30" as="geometry"/>
                </mxCell>
                <mxCell id="9" value="department" style="text;strokeColor=none;fillColor=none;align=left;verticalAlign=middle;spacingLeft=4;spacingRight=4;overflow=hidden;points=[[0,0.5],[1,0.5]];portConstraint=eastwest;rotatable=0;" vertex="1" parent="3">
                    <mxGeometry y="180" width="500" height="30" as="geometry"/>
                </mxCell>
                <mxCell id="8" value="annualLeave" style="text;strokeColor=none;fillColor=none;align=left;verticalAlign=middle;spacingLeft=4;spacingRight=4;overflow=hidden;points=[[0,0.5],[1,0.5]];portConstraint=eastwest;rotatable=0;" vertex="1" parent="3">
                    <mxGeometry y="210" width="500" height="30" as="geometry"/>
                </mxCell>
                <mxCell id="7" value="Image" style="text;strokeColor=none;fillColor=none;align=left;verticalAlign=middle;spacingLeft=4;spacingRight=4;overflow=hidden;points=[[0,0.5],[1,0.5]];portConstraint=eastwest;rotatable=0;" vertex="1" parent="3">
                    <mxGeometry y="240" width="500" height="30" as="geometry"/>
                </mxCell>
                <mxCell id="15" value="progress" style="swimlane;childLayout=stackLayout;resizeParent=1;resizeParentMax=0;horizontal=0;startSize=20;horizontalStack=0;" vertex="1" parent="3">
                    <mxGeometry y="270" width="500" height="420" as="geometry"/>
                </mxCell>
                <mxCell id="16" value="status" style="swimlane;startSize=20;horizontal=0;" vertex="1" parent="15">
                    <mxGeometry x="20" width="480" height="60" as="geometry"/>
                </mxCell>
                <mxCell id="20" value="PK&lt;br&gt;to check status checkin and checkout of stafff" style="text;html=1;align=center;verticalAlign=middle;resizable=0;points=[];autosize=1;strokeColor=none;fillColor=none;" vertex="1" parent="16">
                    <mxGeometry x="70" y="15" width="260" height="30" as="geometry"/>
                </mxCell>
                <mxCell id="17" value="workHistory" style="swimlane;startSize=20;horizontal=0;" vertex="1" parent="15">
                    <mxGeometry x="20" y="60" width="480" height="120" as="geometry"/>
                </mxCell>
                <mxCell id="18" value="annualLeave" style="swimlane;startSize=20;horizontal=0;" vertex="1" parent="15">
                    <mxGeometry x="20" y="180" width="480" height="120" as="geometry"/>
                </mxCell>
                <mxCell id="19" value="covid" style="swimlane;startSize=20;horizontal=0;" vertex="1" parent="15">
                    <mxGeometry x="20" y="300" width="480" height="120" as="geometry"/>
                </mxCell>
                <mxCell id="12" style="text;strokeColor=none;fillColor=none;align=left;verticalAlign=middle;spacingLeft=4;spacingRight=4;overflow=hidden;points=[[0,0.5],[1,0.5]];portConstraint=eastwest;rotatable=0;" vertex="1" parent="3">
                    <mxGeometry y="690" width="500" height="30" as="geometry"/>
                </mxCell>
            </root>
        </mxGraphModel>
    </diagram>
</mxfile>